# xmcd
#
# Track frame offsets: 
#        150
#        30894
#        62232
#        90907
#        116500
#        136592
#        168840
#
# Disc length: 2744 seconds
#
# Revision: 1
# Processed by: cddbd v1.5.2PL0 Copyright (c) Steve Scherf et al.
# Submitted via: ExactAudioCopy v1.0b3
#
DISCID=450ab607
DTITLE=Jaskułke 3yo - Sugar Free
DYEAR=2003
DGENRE=Jazz
TTITLE0=Don't Even Swing
TTITLE1=Reality Known
TTITLE2=Mc M'ca
TTITLE3=Rhythm Changes
TTITLE4=Sonni
TTITLE5=U No Who I M
TTITLE6=Chili Spirit
EXTD=YEAR: 2004
EXTT0=
EXTT1=
EXTT2=
EXTT3=
EXTT4=
EXTT5=
EXTT6=
PLAYORDER=
